<svg width="1200" height="467" viewBox="0 0 1200 467" fill="none" xmlns="http://www.w3.org/2000/svg">
<g clip-path="url(#clip0_54_8)">
<path d="M921 440.869C935.861 438.016 946.573 436.323 952.407 435.623C957.667 434.992 971.852 433.771 990.578 433.798C999.272 433.81 1004.34 433.034 1010.07 432.457C1014.11 432.05 1031.56 430.753 1056.47 429.954C1067 429.617 1078.37 428.374 1094.67 427.882C1104.01 427.599 1119.13 427.192 1138.4 428.221C1150.55 428.87 1165.92 432.794 1177 435.623C1178.77 436.395 1179.34 434.176 1181.98 434.453C1184.62 434.729 1195.68 433.671 1199.5 434.453" stroke="white" stroke-width="5" stroke-linecap="round"/>
<path d="M0 461.007C3.10293 460.505 6.20586 460.004 19.2187 459.244C32.2315 458.485 55.0601 457.482 80.5619 458.846C106.064 460.209 133.547 463.969 148.924 465.907C166.711 468.147 172.132 467.342 179.046 465.831C188.273 463.813 199.857 460.764 212.366 459.119C218.433 458.321 223.988 458.227 232.051 457.095C240.114 455.963 250.531 453.957 265.095 453.3C279.659 452.643 298.055 453.395 312.076 453.031C326.096 452.666 335.183 451.162 356.598 450.387C378.013 449.612 411.48 449.612 430.605 449.988C453.515 450.439 459.374 451.891 464.945 452.643C473.783 453.836 482.417 456.7 495.88 456.327C505.809 456.053 521.976 454.2 530.976 453.175C541.341 451.994 551.098 449.878 580.814 447.979C602.082 446.62 636.019 447.333 654.153 447.459C672.287 447.584 673.617 447.835 685.162 447.964C696.707 448.093 718.428 448.093 730.171 447.842C746.824 446.574 755.77 446.072 762.275 445.058C763.85 444.804 765.402 444.553 767 444.295" stroke="white" stroke-width="5" stroke-linecap="round"/>
<path d="M964.114 435.037C965.968 431.876 967.822 428.715 973.942 417.076C980.062 405.438 990.392 385.418 995.978 374.314C1001.56 363.21 1002.09 361.63 1007.53 349.357C1012.97 337.084 1023.3 314.166 1029.15 299.989C1039.37 275.229 1039.29 268.235 1041.02 261.306C1043.14 252.811 1057.17 256.262 1062.02 251.324C1066.22 247.055 1071.1 241.893 1081.24 232.206C1093.79 220.213 1105.59 202.037 1116.27 186.363C1124.56 174.192 1136.33 156.313 1148.5 136.098C1155.89 123.82 1158.88 117.095 1162.35 109.121C1166.68 99.1643 1170.12 93.6669 1172.51 91.4079C1181.46 82.9505 1195.77 84.3673 1202.21 78.3765C1203.55 76.9037 1204.61 75.5866 1205.56 74.3813C1206.5 73.1759 1207.29 72.1222 1208.11 71.0366" stroke="white" stroke-width="4" stroke-linecap="round"/>
<path d="M1011.27 434.311C1011.7 433.45 1014.29 430.424 1020.89 421.131C1025.48 414.662 1031.14 403.659 1037.25 391.444C1043.36 379.229 1049.39 365.886 1052.7 358.044C1058.13 345.213 1059.71 338.482 1061.23 329.89C1062.7 321.604 1062.97 317.802 1063.84 316.064C1066.58 310.548 1081.61 313.244 1088.59 309.761C1095.21 306.462 1102.04 295.883 1109.44 285.657C1115.64 277.079 1122.87 263.34 1128.57 251.197C1132.89 241.994 1132.92 236.732 1134.33 231.616C1134.67 230.413 1134.88 229.337 1135.1 229.32C1141.72 228.826 1138.36 247.545 1140.95 253.529C1144.29 261.229 1146.82 266.027 1151.05 272.118C1153.85 276.148 1158.74 282.957 1163 288.755C1165.65 292.362 1168.98 295.166 1172.77 298.215C1178.4 302.737 1183.3 304.518 1188.41 307.022C1190.69 308 1193.31 309.305 1196.23 310.609C1197.65 311.052 1198.94 311.052 1200.27 311.052" stroke="white" stroke-width="2" stroke-linecap="round"/>
<path d="M12.2317 454.192C35.1199 447.53 58.1229 436.99 76.2942 426.716C93.5626 416.953 105.967 406.865 117.253 398.939C128.906 390.755 135.202 382.426 145.253 381.672C154.802 380.956 161.996 394.315 171.58 399.851C181.143 405.374 195.94 410.11 208.425 414.454C222.74 419.434 232.354 423.062 241.939 424.749C252.195 426.554 261.072 430.73 274.232 435.03C285.023 437.909 293.638 439.833 298.894 440.544C301.306 441.255 303.201 442.676 310.898 445.577" stroke="white" stroke-width="2" stroke-linecap="round"/>
<path d="M96.9495 447.013C103.626 442.719 113.175 436.99 121.331 431.239C129.26 425.648 139.021 420.248 148.843 416.385C159.768 412.088 170.611 423.55 180.196 429.042C188.694 433.912 197.893 437.421 207.478 439.826C217.536 442.691 228.047 446.524 238.105 448.441C240.984 448.922 244.301 449.396 252.026 449.884" stroke="white" stroke-width="5" stroke-linecap="round"/>
<path d="M138.59 451.32C144.305 447.989 152.447 443.667 157.221 443.66C167.753 448.908 176.383 454.178 180.203 457.042C182.127 458.486 184.022 459.907 187.411 462.808" stroke="white" stroke-width="2" stroke-linecap="round"/>
<path d="M216.129 410.224C230.594 407.517 258.787 396.606 279.058 388.601C293.763 382.794 309.742 369.289 321.17 364.647C332.843 359.906 353.382 378.285 366.878 384C379.086 389.17 388.48 393.79 400.53 399.265C413.458 405.14 427.563 408.364 439.886 411.359C450.13 413.848 459.441 415.228 469.45 416.821C484.25 419.176 493.092 423.896 503.341 427.068C517.442 431.433 535.341 435.709 547.923 438.929C559.972 441.657 572.704 445.307 584.078 447.132C586.828 447.59 589.08 448.042 594.129 449.874" stroke="white" stroke-width="2" stroke-linecap="round"/>
<path d="M280.744 431.218C285.971 429.322 302.196 422.631 315.399 419.027C328.756 415.381 338.611 407.813 347.958 404.891C358.407 401.624 369.712 419.214 379.778 425.69C396.904 436.708 418.533 432.165 430.034 434.556C441.805 437.003 451.558 441.269 462.579 442.461C465.931 442.705 470.196 442.705 473.815 442.942C477.433 443.179 480.276 443.653 484.641 447.013" stroke="white" stroke-width="5" stroke-linecap="round"/>
<path d="M329.565 441.135C337.728 437.657 345.452 433.784 353.861 434.534C362.367 435.293 368.702 441.903 376.465 445.578C378.622 446.555 381.18 447.323 383.563 448.102C385.946 448.881 388.077 449.649 391.565 450.44" stroke="white" stroke-width="2" stroke-linecap="round"/>
<path d="M845.989 370.242C859.027 356.018 869.395 344.187 877.273 332.384C881.98 325.332 886.194 315.129 890.307 304.903C898.44 284.684 904.432 267.344 909.565 256.101C915.194 243.771 919.984 234.5 923.417 227.079C927.172 218.965 927.38 213.423 928.692 207.317C929.026 205.762 928.961 204.329 931.959 203.596C947.908 199.699 954.216 201.671 960.545 199.879C967.022 198.045 971.347 194.258 977.009 191.143C983.194 187.742 988.985 183.726 999.775 173.572C1007.3 166.488 1011.13 159.546 1014.42 152.726C1017.53 146.285 1020.34 141.113 1024.82 138.096C1029.62 134.863 1040.05 141.788 1050.23 142.64C1057.22 143.24 1062.49 143.477 1065.9 143.836C1067.75 143.958 1069.84 143.958 1071.99 143.24" stroke="white" stroke-width="3" stroke-linecap="round"/>
<path d="M900.585 413.875C918.098 395.016 932.957 377.934 945.597 361.026C952.611 351.643 959.987 339.993 967.254 326.706C982.274 299.24 990.777 279.085 995.487 270.62C1002.5 258.021 1005.8 244.305 1010.84 228.496C1012.96 221.835 1013.21 216.553 1014.09 213.285C1016.07 205.941 1029.99 205.534 1036.18 204.338C1045.38 202.561 1052.98 196.908 1060.94 191.85C1068.36 187.137 1073.93 176.978 1077.62 171.759C1079.68 168.837 1081.9 165.655 1087.02 156.052C1107.47 117.699 1113.41 105.882 1118.3 97.2073C1123.17 88.5754 1125.53 82.3265 1128.04 75.9241C1131.17 67.9149 1134.96 60.9138 1138.5 53.4488C1139.25 51.8723 1140.27 50.77 1141.45 50.4575C1147.54 48.8455 1155.87 52.8238 1166.49 52.538C1172.99 52.3629 1175.65 43.6265 1180.94 36.3446C1183 33.8131 1182.56 24.2591 1184.5 22C1186.44 19.7409 1196.6 3.50028 1197.5 0.5" stroke="white" stroke-width="5" stroke-linecap="round"/>
<path d="M1061.64 429.491C1066.13 422.473 1071.74 412.197 1076.87 401.01C1082.9 387.863 1087.63 374.165 1090.1 365.089C1092.55 356.047 1093.01 351.259 1094.51 346.653C1096.11 341.736 1102.43 338.211 1108.36 333.609C1112.45 330.427 1116.2 326.447 1120.07 323.875C1124.49 320.94 1125.02 314.696 1128.98 307.001C1129.89 305.237 1130.6 304.214 1131.35 304.092C1135.84 303.367 1138.97 313.99 1144.34 320.103C1147.53 323.72 1149.94 327.691 1154.66 331.335C1158.63 334.398 1161.97 336.903 1163.79 338.179C1168.16 341.236 1164.77 352.67 1166.48 363.812C1167.41 369.814 1168.2 374.518 1170.03 379.964C1173.36 389.892 1173.8 394.827 1178.82 405.715C1181.35 411.179 1185.37 417.47 1188.61 423.593C1189.9 425.835 1192.04 427.772 1194.73 429.372C1195.92 430.126 1196.77 430.761 1197.64 432.057" stroke="white" stroke-width="5" stroke-linecap="round"/>
<path d="M1105.69 429.216C1108.15 422.193 1111.91 411.033 1115.21 400.882C1117.88 392.672 1117.7 386.413 1119.67 376.465C1120.16 374.011 1119.99 372.073 1120.4 371.408C1124.6 364.607 1132.82 395.113 1137.08 404.236C1139.69 409.822 1141.96 414.631 1145.17 420.52C1146.31 422.984 1148.17 425.56 1150.96 428.233C1152.32 429.421 1153.55 430.269 1156.69 432.428" stroke="white" stroke-width="2" stroke-linecap="round"/>
<path d="M1069.7 143.295C1070.48 143.225 1072.33 142.942 1073.9 142.695C1076.26 142.324 1077.33 140.822 1078.94 139.759C1081.58 138.013 1083.12 137.352 1084.76 136.29C1086.72 135.021 1088.19 133.954 1089.9 133.209C1092.18 132.222 1093.76 130.98 1095.16 129.919C1097.42 128.193 1098.55 126.877 1099.73 125.318C1100.78 123.933 1102.12 122.982 1103.37 121.954C1103.69 121.635 1104.05 121.215 1104.37 120.823C1104.69 120.431 1104.98 120.081 1105.7 119.295" stroke="white" stroke-width="3" stroke-linecap="round"/>
<path d="M951.517 284.708C958.264 282.338 963.756 279.783 968.198 278.407C974.663 276.403 979.191 272.106 981.946 269.364C984.807 266.517 988.069 263.518 991.138 259.953C995.476 256.016 998.222 254.003 1000.23 252.909C1001.18 252.358 1002.02 251.815 1003.52 250.708" stroke="white" stroke-width="2" stroke-linecap="round"/>
<path d="M923.195 388.497C924.022 386.639 925.259 383.544 926.093 381.047C926.857 378.76 928.161 376.8 929.148 374.883C931.016 371.253 933.239 365.409 933.655 363.283C934.19 360.552 936.856 355.701 938.057 351.374C938.873 348.434 940.28 344.489 941.215 341.948C942.613 338.149 943.599 334.956 944.22 332.83C944.947 330.344 946.594 326.578 947.534 323.716C948.532 320.679 949.702 314.484 950.488 310.355C951.083 307.23 951.883 303.478 952.61 300.824C952.921 297.875 953.337 292.406 953.184 287.385C953.03 285.542 952.722 285.132 951.162 285.331" stroke="white" stroke-width="2" stroke-linecap="round"/>
<path d="M921.454 439.558C922.835 439.559 923.954 440.678 923.954 442.058C923.954 443.439 922.835 444.558 921.454 444.558C915.653 444.558 910.07 444.559 906.847 444.627C903.7 444.693 902.919 444.816 901.956 444.887C900.107 445.039 898.487 445.437 897.132 445.839C896.438 446.044 895.858 446.237 895.281 446.42C894.772 446.581 894.158 446.771 893.611 446.858C893.138 446.934 892.645 447.107 891.842 447.39C891.127 447.643 890.142 447.99 889.059 448.121C888.474 448.192 887.945 448.344 887.363 448.554C886.91 448.718 886 449.091 885.329 449.304C884.816 449.468 884.362 449.674 883.632 449.973C882.964 450.248 882.133 450.567 881.177 450.759C880.607 450.872 880.078 450.908 879.615 450.927C879.087 450.95 878.766 450.95 878.221 450.981C877.276 451.035 875.989 451.172 874.001 451.677C872.935 451.947 871.984 452.257 870.931 452.569C869.953 452.859 868.85 453.163 867.781 453.261C867.072 453.327 866.338 453.315 865.609 453.297C864.849 453.277 864.024 453.248 862.973 453.248C860.897 453.248 857.933 453.368 853.405 453.962C849.553 454.466 846.484 454.944 840.379 455.028C835.556 455.095 826.381 455.212 821.515 455.024C816.251 454.821 815.284 454.682 814.729 454.651C813.267 454.569 811.384 454.519 809.551 454.463C807.768 454.408 805.979 454.348 804.836 454.239C803.201 454.083 800.725 453.806 798.922 453.631C797.536 453.496 794.505 453.433 791.723 452.965C789.809 452.642 787.905 452.458 786.041 452.24C785.339 452.158 784.72 452.202 783.539 452.181C782.502 452.163 781.201 452.081 779.858 451.606C778.293 451.053 777.09 450.682 775.673 450.376C774.864 450.201 773.999 450.115 772.863 449.96C771.845 449.82 770.586 449.62 769.462 449.172C767.379 448.339 765.805 447.863 764.01 447.564C762.648 447.338 761.728 446.049 761.954 444.687C762.181 443.325 763.468 442.405 764.83 442.632C767.079 443.006 769.008 443.607 771.317 444.529C771.814 444.728 772.527 444.868 773.541 445.007C774.438 445.129 775.669 445.261 776.728 445.489C778.426 445.856 779.847 446.299 781.525 446.892C782.1 447.096 782.756 447.167 783.627 447.182C784.355 447.195 785.598 447.155 786.621 447.274C788.358 447.477 790.474 447.684 792.553 448.034C795.182 448.477 797.335 448.453 799.406 448.654C801.587 448.866 803.423 449.081 805.312 449.261C806.258 449.352 807.863 449.409 809.703 449.466C811.493 449.52 813.464 449.573 815.008 449.659C815.8 449.703 816.46 449.826 821.707 450.028C826.411 450.209 835.429 450.095 840.31 450.028C846.095 449.948 848.908 449.508 852.756 449.004C857.491 448.383 860.673 448.248 862.972 448.248C864.107 448.247 865.027 448.28 865.737 448.299C866.478 448.318 866.94 448.318 867.32 448.283C867.85 448.234 868.534 448.064 869.51 447.775C870.41 447.508 871.578 447.133 872.772 446.83C875.085 446.243 876.689 446.06 877.939 445.989C878.49 445.958 879.093 445.945 879.404 445.932C879.781 445.917 880.007 445.894 880.197 445.856C880.667 445.762 881.137 445.593 881.734 445.348C882.268 445.129 883.043 444.785 883.814 444.54C884.427 444.345 884.766 444.178 885.662 443.853C886.43 443.575 887.353 443.291 888.457 443.157C888.924 443.1 889.426 442.941 890.18 442.676C890.847 442.44 891.808 442.083 892.821 441.921C892.942 441.901 893.208 441.832 893.773 441.653C894.27 441.495 894.959 441.268 895.711 441.045C897.248 440.589 899.23 440.095 901.547 439.905L901.57 439.903C902.431 439.84 903.401 439.698 906.741 439.628C910.031 439.558 915.682 439.558 921.454 439.558ZM736.292 283.712C736.682 283.321 737.315 283.321 737.706 283.711C741.048 287.048 742.056 287.473 743.13 287.678C746.097 287.877 748.93 288.099 751.44 288.649C752.852 288.818 754.432 288.827 756.099 288.827C757.756 288.827 759.5 288.82 761.121 288.978C764.329 289.292 767.517 290.311 768.656 293.84C769.624 296.835 770.304 300.41 772.097 303.603C775.315 309.334 778.88 313.416 784.173 314.443C785.831 314.764 788.253 314.432 791.211 313.786C792.667 313.468 794.205 313.086 795.797 312.696C797.383 312.308 799.017 311.912 800.637 311.576C803.859 310.907 807.123 310.45 809.955 310.768C812.819 311.091 815.36 312.225 816.906 314.831C818.934 318.247 820.419 322.434 821.494 326.412C822.436 326.77 823.108 327.679 823.108 328.747V330.589C823.108 332.129 823.107 335.079 823.095 336.667C823.083 338.132 823.055 338.597 823.045 339.356C823.027 340.737 823.03 341.928 823.043 342.81C823.057 343.739 823.082 344.156 823.082 344.177C823.142 344.593 823.182 345.008 823.214 347.123L823.244 349.867V349.88C823.253 352.837 823.254 357.662 823.255 363.2C823.504 363.225 823.746 363.254 823.963 363.289C824.208 363.328 824.497 363.384 824.726 363.474C824.948 363.562 825.197 363.595 825.602 363.671C825.763 363.701 825.916 363.719 826.145 363.751C826.354 363.78 826.606 363.82 826.868 363.89C827.204 363.98 827.467 364.039 827.699 364.091C827.922 364.14 828.155 364.19 828.378 364.26C828.78 364.384 829.199 364.492 829.619 364.612C830.066 364.74 830.501 364.818 830.895 364.91C831.322 365.009 831.69 365.111 832.381 365.278C833.831 365.63 834.284 365.868 835.033 366.13C835.738 366.375 836.956 366.896 837.562 367.142C838.572 367.554 839.166 367.758 839.539 367.871C840.056 368.027 840.504 368.229 841.005 368.511C847.859 369.845 853.128 371.686 857.876 373.119C860.631 373.951 863.605 374.519 866.694 375.044C869.765 375.565 872.972 376.047 876.103 376.701C883.198 378.184 888.828 382.842 892.933 387.222C897.116 391.687 898.396 398.133 899.254 404.175C900.264 409.477 901.273 415 902.19 421.421L902.577 424.233L902.583 424.276L902.585 424.32C902.733 427.653 902.733 432.82 902.733 438.104C902.732 438.656 902.284 439.104 901.733 439.104C901.181 439.104 900.733 438.656 900.733 438.104C900.733 433.84 900.729 429.7 900.653 426.538C897.771 427.927 896.798 428.645 895.563 429.328L895.535 429.343L895.507 429.356C892.674 430.696 889.672 431.885 882.573 432.755L882.513 432.761H882.451C869.356 432.757 858.761 432.612 850.547 432.469C842.324 432.324 836.512 432.182 832.95 432.182C832.398 432.182 831.951 431.734 831.95 431.182C831.95 430.63 832.398 430.182 832.95 430.182C836.535 430.182 842.386 430.325 850.582 430.469C858.776 430.612 869.339 430.756 882.391 430.76C889.205 429.921 891.998 428.801 894.614 427.565C895.81 426.902 897.02 426.026 900.574 424.362C899.708 417.854 898.741 412.291 897.756 407.022C895.899 407.496 894.743 407.93 893.381 408.313C891.895 408.732 890.428 409.007 888.508 409.144L888.498 409.145H888.489C884.747 409.34 881.658 410.289 878.739 411.292C875.857 412.282 873.036 413.369 870.029 413.677C863.487 414.348 841.497 414.873 831.355 414.878V441.564C831.354 442.116 830.907 442.564 830.355 442.564C829.803 442.564 829.355 442.116 829.355 441.564V405.226C829.355 404.928 829.486 404.66 829.693 404.477C826.688 405.356 824.579 405.364 822.916 405.505C821.289 405.643 819.722 405.94 816.351 406.083H816.338L816.325 406.084C807.82 406.227 802.381 406.226 801.804 406.226C801.252 406.226 800.804 405.778 800.804 405.226C800.804 404.674 801.252 404.226 801.804 404.226C802.373 404.226 807.796 404.226 816.281 404.084C819.62 403.941 820.909 403.667 822.747 403.511C824.539 403.36 826.406 403.365 829.206 402.537C829.735 402.381 830.291 402.683 830.448 403.212C830.563 403.598 830.431 403.998 830.147 404.248C830.214 404.234 830.283 404.226 830.355 404.226C830.907 404.227 831.354 404.674 831.355 405.226V412.878C841.502 412.873 863.398 412.347 869.825 411.688C872.545 411.409 875.093 410.43 878.09 409.4C881.047 408.384 884.345 407.361 888.366 407.149L889.015 407.095C890.484 406.957 891.653 406.722 892.839 406.388C894.036 406.051 895.415 405.554 897.385 405.055C897.351 404.879 897.319 404.703 897.285 404.527L897.28 404.504L897.277 404.48C896.414 398.392 895.18 392.547 891.473 388.59C887.471 384.319 882.191 380.016 875.693 378.658C872.612 378.014 869.481 377.546 866.359 377.015C863.257 376.488 860.18 375.903 857.298 375.033C853.739 373.959 849.997 372.695 845.581 371.582C845.602 371.682 845.614 371.782 845.613 371.878C845.611 372.243 845.461 372.64 845.112 372.911C844.979 373.015 844.837 373.073 844.772 373.099C844.683 373.135 844.587 373.167 844.488 373.193C844.291 373.247 844.048 373.292 843.779 373.314C843.249 373.359 842.543 373.32 841.846 373.008C841.621 372.907 841.373 372.804 841.126 372.736C841.068 372.744 841.007 372.755 840.942 372.763C840.709 372.794 840.48 372.816 840.264 372.835C840.192 372.887 840.11 372.949 840.015 373.022C839.836 373.16 839.612 373.337 839.371 373.51C838.882 373.86 838.259 374.247 837.486 374.486C836.78 374.704 835.722 374.99 834.534 374.845C833.82 374.758 833.313 374.605 832.968 374.499C832.961 374.531 832.954 374.565 832.946 374.598C832.909 374.754 832.847 374.987 832.725 375.212C832.595 375.45 832.367 375.733 831.986 375.888C831.769 375.977 831.2 376.138 830.672 375.755C830.618 375.715 830.569 375.672 830.528 375.635C830.376 375.812 830.177 376.007 829.918 376.152C829.885 376.171 829.671 376.3 829.493 376.373C829.359 376.428 828.797 376.65 828.263 376.272C828.093 376.49 827.817 376.745 827.394 376.827C827.279 376.849 827.181 376.85 827.118 376.849C827.064 376.848 827.005 376.844 826.981 376.843C826.921 376.839 826.849 376.835 826.731 376.837C826.143 376.847 825.775 376.952 825.443 377.043C825.181 377.115 824.535 377.333 823.886 376.962C823.474 377.169 822.934 377.334 822.313 377.238C822.285 377.234 822.254 377.227 822.221 377.221C822.187 377.304 822.148 377.38 822.108 377.445C822.081 377.486 822.004 377.608 821.872 377.718C821.833 377.75 821.766 377.8 821.674 377.845C821.589 377.887 821.416 377.959 821.186 377.95C821.166 377.949 821.146 377.946 821.126 377.944C821.109 377.96 821.089 377.973 821.07 377.989C821.031 378.2 820.993 378.401 820.953 378.601C820.845 379.143 820.318 379.495 819.776 379.386C819.39 379.309 819.101 379.019 819.006 378.662C818.893 378.633 818.773 378.589 818.655 378.519C818.425 378.384 818.276 378.206 818.193 378.099C818.149 378.044 818.109 377.987 818.081 377.947C818.05 377.902 818.028 377.872 818.005 377.842C818.003 377.839 818.002 377.836 818 377.834C817.984 377.851 817.966 377.869 817.949 377.887C817.841 378.005 817.712 378.147 817.596 378.265C817.489 378.374 817.326 378.532 817.138 378.648C816.942 378.769 816.431 378.992 815.903 378.682C815.488 378.438 815.361 378.018 815.322 377.871C815.315 377.842 815.309 377.812 815.303 377.783C815.135 377.833 814.949 377.865 814.749 377.865C814.644 377.865 814.42 377.865 814.19 377.809C814.017 377.767 813.754 377.671 813.53 377.452C813.508 377.464 813.486 377.478 813.463 377.49C813.309 377.568 813.05 377.711 812.808 377.807C812.543 377.913 812.19 378.014 811.78 377.974C811.689 377.966 811.484 377.944 811.276 377.868C811.135 377.816 810.914 377.706 810.733 377.495C810.518 377.637 810.234 377.769 809.888 377.776C809.361 377.787 808.613 377.639 808.081 377.092C808.039 377.048 807.999 377.001 807.961 376.957C807.949 376.966 807.939 376.977 807.928 376.986C807.808 377.081 807.624 377.217 807.401 377.31C807.166 377.409 806.811 377.492 806.416 377.359C806.1 377.253 805.807 377.058 805.565 376.808C805.436 376.677 805.338 376.533 805.265 376.419C805.262 376.425 805.259 376.433 805.256 376.44C805.235 376.487 805.208 376.549 805.18 376.608C805.129 376.716 805.04 376.899 804.902 377.066C804.757 377.243 804.486 377.487 804.068 377.541C803.489 377.614 803.093 377.243 802.929 376.994C802.773 376.758 802.588 376.493 802.429 376.268C802.418 376.274 802.407 376.281 802.396 376.286L802.359 376.303C802.263 376.345 802.171 376.38 802.091 376.408C802.051 376.422 802.002 376.438 801.949 376.451C801.933 376.455 801.897 376.463 801.85 376.471C801.744 376.567 801.617 376.643 801.471 376.687C800.942 376.847 800.384 376.55 800.224 376.021C800.222 376.014 800.22 376.008 800.219 376.005C800.218 376.003 800.217 376.001 800.217 376.001L800.216 376C800.212 375.994 800.208 375.988 800.201 375.976C800.195 375.966 800.185 375.951 800.176 375.935C800.157 375.904 800.14 375.873 800.126 375.848C800.109 375.818 800.102 375.807 800.089 375.783C800.071 375.751 800.058 375.728 800.047 375.712C799.951 375.583 799.848 375.437 799.741 375.279C799.662 375.369 799.547 375.507 799.46 375.594C799.431 375.624 799.403 375.65 799.389 375.664C799.376 375.675 799.369 375.681 799.365 375.684C799.051 376.119 798.447 376.232 797.998 375.929C797.54 375.621 797.42 375 797.728 374.542L797.842 374.389C797.879 374.346 797.915 374.308 797.947 374.275C797.976 374.246 798.004 374.22 798.019 374.207C798.035 374.191 798.041 374.185 798.044 374.182C798.08 374.146 798.088 374.131 798.229 373.97C792.629 376.59 787.686 379.298 781.889 381.095C776.405 382.796 770.237 386.134 765.149 391.241C764.562 391.83 764.083 392.276 763.698 393.196C763.302 394.146 762.986 395.675 763.001 398.403C763.024 402.447 763.07 406.111 763.128 409.428C763.546 409.453 764.226 409.523 765.096 409.621C766.202 409.746 767.707 409.925 769.556 410.138C772.773 410.291 776.302 410.869 782.242 411.722C786.002 411.995 791.686 412.02 799.073 413.512V406.957C799.074 406.405 799.521 405.957 800.073 405.957C800.625 405.957 801.073 406.405 801.073 406.957V413.671C801.073 417.778 801.075 424.488 801.333 432.427C801.55 432.578 801.758 432.771 801.955 433.02C802.298 433.453 802.225 434.082 801.793 434.426C801.676 434.518 801.545 434.579 801.409 434.612C801.534 437.911 801.703 441.391 801.937 444.96C801.972 445.51 801.555 445.987 801.004 446.023C800.453 446.059 799.977 445.641 799.941 445.091C799.686 441.202 799.508 437.419 799.381 433.86C797.032 433.599 794.218 433.397 791.771 433.232C789.321 433.067 787.176 432.937 786.332 432.822L786.302 432.817L786.271 432.811C785.217 432.601 784.332 432.474 783.475 432.36C782.622 432.247 781.771 432.145 780.834 431.985C779.898 431.826 778.986 431.739 778.02 431.614C777.087 431.494 776.126 431.339 775.25 431.04C774.483 430.777 773.743 430.482 773.015 430.2C772.278 429.915 771.534 429.635 770.714 429.382C768.392 428.663 765.442 428.009 763.693 427.747C763.699 427.882 763.705 428.016 763.711 428.148C764.014 434.483 764.303 437.941 764.303 439.834C764.303 440.386 763.855 440.833 763.303 440.834C762.751 440.834 762.303 440.386 762.303 439.834C762.303 437.998 762.021 434.704 761.713 428.243C761.595 425.762 761.474 422.829 761.365 419.355C761.175 419.161 761.063 418.891 761.08 418.597C761.094 418.367 761.185 418.16 761.325 417.999C761.172 412.733 761.046 406.294 761.001 398.414C760.985 395.555 761.31 393.725 761.853 392.426C762.407 391.097 763.165 390.4 763.733 389.83C769.074 384.469 775.534 380.972 781.297 379.185C786.745 377.496 791.286 375.033 796.734 372.461C796.781 372.13 796.991 371.83 797.318 371.684C797.395 371.65 797.489 371.617 798.294 371.127C798.338 371.1 798.384 371.071 798.432 371.042C798.436 371.034 798.439 371.026 798.443 371.021C798.514 370.909 798.593 370.836 798.607 370.824C798.652 370.781 798.694 370.751 798.702 370.745C798.744 370.714 798.792 370.685 798.81 370.675L798.934 370.59C798.986 370.552 799.054 370.501 799.147 370.43C799.324 370.296 799.568 370.111 799.921 369.855C800.677 369.307 801.502 368.835 802.049 368.508C802.519 368.226 803 368.017 803.322 367.856C803.812 367.611 804.135 367.469 804.468 367.284C804.898 367.045 805.225 366.87 805.77 366.586C806.146 366.39 806.527 366.201 807.054 366.073C807.657 365.926 808.327 365.756 808.85 365.613C809.318 365.485 810.531 365.166 811.406 365.12C811.608 365.109 811.828 365.066 812.109 364.996C812.358 364.934 812.726 364.831 813.065 364.759C813.098 364.752 813.136 364.745 813.178 364.737C813.505 364.615 813.892 364.477 814.413 364.326C814.914 364.181 815.467 364 815.947 363.885L816.037 363.863L816.13 363.858C816.571 363.835 817.366 363.813 818.108 363.816V344.634C818.073 344.216 818.054 343.566 818.044 342.886C818.03 341.953 818.027 340.714 818.045 339.291C818.052 338.781 818.062 338.482 818.071 338.143C818.08 337.809 818.089 337.4 818.095 336.628C818.107 335.065 818.108 332.139 818.108 330.589V328.747C818.108 327.783 818.653 326.947 819.452 326.53C818.413 322.773 817.02 318.944 815.186 315.852C814.06 313.956 812.201 313.033 809.732 312.756C807.23 312.474 804.226 312.875 801.044 313.535C799.462 313.863 797.859 314.25 796.273 314.638C794.693 315.025 793.124 315.415 791.638 315.74C788.713 316.379 785.908 316.816 783.792 316.406C777.587 315.202 773.633 310.425 770.353 304.582C768.43 301.158 767.62 297.136 766.754 294.454C766.006 292.139 763.966 291.266 760.926 290.969C759.423 290.821 757.786 290.828 756.099 290.828C754.437 290.828 752.721 290.821 751.158 290.631L751.109 290.625L751.063 290.615C748.69 290.089 745.959 289.873 742.927 289.671L742.869 289.666L742.811 289.655C741.074 289.332 739.714 288.543 736.293 285.127C735.903 284.736 735.902 284.102 736.292 283.712ZM812.967 409.663C813.254 409.192 813.87 409.041 814.342 409.328C814.435 409.385 814.515 409.455 814.582 409.534C814.583 409.535 814.585 409.536 814.586 409.537C814.86 409.769 815.522 410.354 816.234 411.039C816.665 411.452 817.253 412.267 817.678 412.914C817.762 413.043 817.842 413.11 818.062 413.297L818.063 413.298C818.077 413.307 818.093 413.318 818.118 413.334C818.157 413.358 818.242 413.411 818.318 413.468C818.35 413.492 818.384 413.524 818.422 413.558C818.654 413.586 818.878 413.693 819.047 413.88C819.417 414.289 819.386 414.921 818.977 415.292C818.447 415.771 817.665 416.515 816.725 417.403L816.694 417.431L816.662 417.457C816.434 417.639 816.23 417.794 816.05 417.932C816.165 418.032 816.283 418.134 816.4 418.235C816.706 418.503 817.003 418.762 817.223 418.95C817.426 419.097 817.582 419.205 817.702 419.287C818.114 418.816 818.47 418.385 818.777 418.01C819.122 417.59 819.445 417.193 819.709 416.927C820.119 416.516 820.645 416.333 820.985 416.23L821.12 416.196C821.789 416.052 822.358 416.344 822.696 416.563C823.041 416.786 823.454 417.151 823.668 417.32C824.409 417.904 824.848 418.764 825.111 419.464C825.27 419.886 825.225 420.301 825.152 420.602C825.078 420.912 824.95 421.21 824.825 421.462C824.699 421.717 824.554 421.971 824.432 422.185C824.302 422.413 824.2 422.592 824.126 422.744C823.992 423.02 823.772 423.252 823.476 423.391C823.199 423.521 822.924 423.538 822.715 423.522C822.325 423.493 821.943 423.334 821.672 423.209C821.385 423.075 821.071 422.904 820.829 422.777C820.559 422.635 820.367 422.541 820.23 422.495L820.218 422.491L820.207 422.487C819.39 422.189 818.764 421.887 818.398 421.66L818.295 421.613C818.275 421.605 818.251 421.6 818.224 421.592C818.149 421.674 818.068 421.765 817.983 421.858C817.709 422.156 817.321 422.581 816.781 423.193C816.41 423.614 816.177 423.869 816.015 424.047C816.234 424.142 816.433 424.233 816.62 424.331C817.085 424.573 817.393 424.764 817.629 424.934C817.838 425.086 818.034 425.261 818.09 425.306C818.208 425.402 818.317 425.511 818.412 425.612C818.791 425.135 819.099 424.725 819.32 424.397C819.442 424.217 819.679 423.892 820.037 423.689L820.145 423.635C820.394 423.524 820.639 423.508 820.817 423.515C821.025 423.524 821.225 423.569 821.394 423.619C821.731 423.719 822.092 423.883 822.424 424.052C823.052 424.369 823.877 424.864 824.35 425.12C824.509 425.206 824.654 425.275 824.855 425.377C825.032 425.467 825.25 425.581 825.447 425.719C825.653 425.864 825.832 426.067 825.939 426.33C826.043 426.588 826.052 426.841 826.024 427.05C825.971 427.432 825.779 427.759 825.633 427.973C825.333 428.415 824.867 428.882 824.605 429.159C824.322 429.457 824.199 429.625 823.899 429.958C823.645 430.238 823.339 430.541 822.934 430.795C822.447 431.098 821.945 431.042 821.634 430.959C821.332 430.878 821.059 430.731 820.924 430.66C820.406 430.388 819.988 429.967 819.672 429.608C819.509 429.423 819.355 429.234 819.221 429.067C819.09 428.904 818.98 428.767 818.877 428.646C818.836 428.604 818.795 428.567 818.757 428.533C818.716 428.584 818.677 428.636 818.638 428.684C818.36 429.023 818.043 429.399 817.712 429.824C817.554 430.027 817.398 430.217 817.254 430.393C817.379 430.446 817.514 430.503 817.655 430.566C817.919 430.651 818.219 430.725 818.549 430.8C818.876 430.874 819.257 430.955 819.585 431.042C819.903 431.126 820.283 431.243 820.598 431.429C820.909 431.614 821.391 432.015 821.389 432.711C821.386 433.341 820.963 435.104 818.424 437.62C818.171 437.87 817.848 438.124 817.431 438.196C817.21 438.234 817.019 438.212 816.869 438.175C816.801 438.157 816.743 438.138 816.706 438.125C816.688 438.118 816.672 438.112 816.661 438.108C816.649 438.104 816.643 438.101 816.639 438.099C816.652 438.104 816.653 438.103 816.619 438.095C816.611 438.094 816.511 438.072 816.461 438.06C816.316 438.025 816.079 437.957 815.838 437.79C815.346 437.449 814.933 437.078 814.6 436.789C814.248 436.484 813.983 436.269 813.707 436.117C813.402 435.95 813.013 435.804 812.654 435.7C812.479 435.649 812.322 435.611 812.2 435.587C812.059 435.559 812.019 435.56 812.051 435.56C811.499 435.56 811.051 435.112 811.051 434.56C811.051 434.008 811.499 433.56 812.051 433.56C812.14 433.56 812.244 433.571 812.357 433.587C812.365 433.578 812.374 433.571 812.381 433.564C812.444 433.488 812.534 433.371 812.705 433.152L812.708 433.147C812.843 432.977 813.004 432.727 813.156 432.446C813.294 432.192 813.488 431.949 813.636 431.765C813.801 431.559 813.959 431.368 814.114 431.144C814.139 431.109 814.166 431.074 814.193 431.038C813.91 430.857 813.519 430.614 812.97 430.29C812.554 430.085 812.182 429.909 811.851 429.752C811.785 429.918 811.717 430.106 811.641 430.32C811.559 430.547 811.469 430.802 811.37 431.05C811.189 431.505 810.919 432.107 810.497 432.518C810.013 432.99 809.385 432.922 809.009 432.799C807.976 432.459 806.549 432.199 805.129 430.569C804.926 430.336 804.729 430.01 804.722 429.594C804.716 429.2 804.891 428.91 804.949 428.813L805.515 427.888C805.701 427.59 805.891 427.293 806.091 426.98C806.184 426.835 806.271 426.685 806.361 426.53C806.446 426.385 806.543 426.215 806.639 426.07C806.725 425.939 806.868 425.734 807.066 425.574C807.272 425.407 807.685 425.186 808.181 425.342L808.281 425.378L808.43 425.447C808.571 425.521 808.692 425.606 808.776 425.668C808.837 425.713 808.901 425.761 808.956 425.803C809.014 425.848 809.068 425.889 809.123 425.929C809.344 426.091 809.544 426.214 809.766 426.283C810.142 426.4 810.594 426.557 810.999 426.697C811.079 426.725 811.158 426.75 811.234 426.776C811.289 426.678 811.357 426.558 811.451 426.385C811.56 426.186 811.738 425.867 811.973 425.626C812.073 425.523 812.169 425.41 812.285 425.27C812.394 425.14 812.53 424.975 812.677 424.821C812.848 424.642 813.028 424.459 813.192 424.289C812.931 424.093 812.505 423.801 811.946 423.303C811.468 422.877 811.055 422.506 810.738 422.22C810.281 422.865 809.836 423.544 809.584 423.97C809.57 423.994 809.56 424.016 809.526 424.079C809.498 424.129 809.453 424.213 809.396 424.299C809.287 424.461 809.044 424.771 808.601 424.888C807.594 425.156 806.777 424.669 806.281 424.275C806.024 424.07 805.795 423.845 805.619 423.67C805.421 423.471 805.315 423.362 805.232 423.296C805.019 423.126 804.824 423.005 804.609 422.867C804.438 422.757 804.128 422.564 803.906 422.292C803.556 421.862 803.482 421.366 803.547 420.928C803.606 420.532 803.78 420.171 803.941 419.891C804.106 419.603 804.309 419.313 804.484 419.063C804.671 418.798 804.832 418.57 804.965 418.351C805.534 417.418 806.401 416.935 807.401 416.653C808.385 416.377 809.112 416.883 809.522 417.259C809.721 417.441 809.911 417.655 810.03 417.784C810.111 417.871 810.168 417.926 810.206 417.962C810.53 418.077 810.893 418.202 811.184 418.318C811.278 418.356 811.492 418.438 811.718 418.635C811.768 418.678 811.816 418.725 811.861 418.774C812.277 418.425 812.626 418.133 812.875 417.925C812.853 417.903 812.829 417.883 812.807 417.861L812.787 417.842C812.624 417.669 812.231 417.325 811.658 416.91C811.314 416.692 811.02 416.522 810.768 416.381C810.401 416.464 810.002 416.338 809.756 416.021C809.555 415.763 809.482 415.445 809.533 415.141C809.572 414.912 809.677 414.738 809.703 414.693L809.863 414.443C809.944 414.322 810.075 414.125 810.305 413.777C810.767 413.077 811.602 411.806 812.11 411.02C812.615 410.241 812.791 409.951 812.967 409.663ZM816.69 432.327C816.507 432.563 816.221 432.716 815.9 432.717C815.757 432.717 815.621 432.686 815.498 432.633C815.386 432.778 815.283 432.909 815.196 433.017C815.029 433.227 814.952 433.331 814.914 433.4C814.76 433.684 814.58 433.973 814.396 434.226C814.488 434.271 814.581 434.315 814.67 434.364C815.154 434.63 815.563 434.976 815.911 435.279C816.266 435.587 816.575 435.862 816.939 436.118C816.95 436.121 816.964 436.124 816.983 436.128C817.002 436.132 817.034 436.139 817.063 436.145C817.064 436.146 817.066 436.146 817.068 436.146C818.592 434.624 819.113 433.553 819.292 433.041C819.23 433.021 819.158 432.997 819.073 432.974C818.791 432.9 818.479 432.835 818.107 432.751C817.753 432.67 817.357 432.575 816.985 432.451L816.937 432.435L816.889 432.413C816.821 432.382 816.754 432.355 816.69 432.327ZM763.382 419.839C763.452 422.006 763.525 423.957 763.601 425.714C765.419 425.951 768.735 426.676 771.306 427.471C772.194 427.746 772.99 428.046 773.736 428.335C774.491 428.627 775.179 428.901 775.898 429.147C776.571 429.377 777.363 429.513 778.276 429.631C779.156 429.744 780.184 429.845 781.171 430.013C782.06 430.165 782.857 430.261 783.736 430.378C784.598 430.492 785.519 430.623 786.613 430.841C787.377 430.943 789.397 431.067 791.905 431.236C794.08 431.383 796.577 431.561 798.79 431.787L799.314 431.843C799.244 429.61 799.196 427.478 799.161 425.48C799.079 425.457 798.997 425.424 798.92 425.378C798.595 425.183 798.372 425.049 797.892 424.97C794.862 424.791 793.263 424.647 791.698 424.466C790.201 424.367 787.544 424.404 785.373 423.98C784.597 423.829 783.727 423.555 782.966 423.359C782.159 423.151 781.312 422.979 780.349 422.949C778.685 422.896 777.308 422.901 776.255 422.851C775.15 422.799 774.203 422.683 773.225 422.351C771.257 421.684 769.85 421.097 767.495 420.65C766.538 420.469 765.397 420.225 764.424 420.033C764.052 419.96 763.702 419.895 763.382 419.839ZM807.776 428.059C807.452 428.565 807.166 429.018 806.87 429.505C807.662 430.311 808.369 430.502 809.293 430.791C809.357 430.669 809.431 430.511 809.512 430.309C809.595 430.101 809.675 429.88 809.758 429.647L810.013 428.959C810.057 428.847 810.112 428.74 810.171 428.637C810.169 428.633 810.168 428.628 810.166 428.624C810.158 428.6 810.151 428.576 810.145 428.552C810.143 428.544 810.14 428.536 810.138 428.528C810.137 428.523 810.135 428.518 810.134 428.513C809.788 428.394 809.455 428.28 809.174 428.193C808.698 428.046 808.322 427.812 808.043 427.614C807.965 427.749 807.875 427.904 807.776 428.059ZM814.121 426.205C814.032 426.298 813.943 426.404 813.821 426.551C813.708 426.687 813.566 426.857 813.404 427.022C813.403 427.024 813.382 427.047 813.344 427.106C813.304 427.168 813.26 427.245 813.207 427.343C813.12 427.503 812.972 427.794 812.835 428.004L812.834 428.005C813.153 428.156 813.507 428.325 813.893 428.515L813.927 428.532L813.959 428.552C814.597 428.928 815.07 429.215 815.435 429.456C815.645 429.204 815.887 428.913 816.134 428.595C816.465 428.17 816.793 427.778 817.044 427.472C816.972 427.321 816.939 427.15 816.951 426.975C816.903 426.923 816.865 426.887 816.831 426.86C816.639 426.705 816.618 426.671 816.456 426.554C816.32 426.456 816.1 426.314 815.696 426.104C815.429 425.965 815.116 425.829 814.657 425.648C814.455 425.861 814.256 426.064 814.121 426.205ZM820.937 425.574C820.677 425.954 820.337 426.405 819.936 426.909C820.018 426.976 820.1 427.046 820.179 427.12L820.337 427.279L820.355 427.297L820.371 427.316C820.508 427.475 820.651 427.653 820.779 427.813C820.913 427.98 821.041 428.138 821.172 428.286C821.444 428.595 821.668 428.791 821.855 428.889C821.927 428.927 821.983 428.957 822.036 428.981C822.156 428.886 822.278 428.769 822.416 428.616C822.57 428.446 822.893 428.058 823.152 427.784C823.396 427.527 823.622 427.293 823.798 427.083C823.673 427.021 823.528 426.949 823.398 426.879C822.749 426.527 822.157 426.158 821.521 425.836C821.284 425.716 821.088 425.629 820.937 425.574ZM763.165 411.433C763.211 413.727 763.265 415.845 763.321 417.801C763.789 417.875 764.299 417.97 764.811 418.071C765.851 418.276 766.901 418.502 767.868 418.685C770.401 419.166 771.995 419.824 773.866 420.458C774.593 420.704 775.331 420.805 776.35 420.853C777.42 420.904 778.609 420.893 780.412 420.95C781.581 420.987 782.585 421.196 783.465 421.423C784.391 421.662 785.048 421.879 785.757 422.017C787.529 422.363 789.518 422.361 791.171 422.434L791.858 422.472L791.906 422.476C793.057 422.61 794.228 422.724 796.032 422.848L798.07 422.978L798.117 422.98L798.164 422.988C798.551 423.048 798.863 423.14 799.125 423.242C799.086 420.286 799.077 417.684 799.074 415.556C791.649 414.014 786.024 414.005 782.069 413.717L782.034 413.714L782 413.709C775.936 412.838 772.538 412.279 769.43 412.135L769.396 412.134L769.361 412.13C767.485 411.913 765.983 411.733 764.872 411.608C764.059 411.516 763.498 411.459 763.165 411.433ZM807.943 418.578C807.237 418.777 806.891 419.035 806.673 419.391C806.498 419.679 806.292 419.968 806.12 420.213C805.938 420.472 805.789 420.689 805.677 420.885C805.625 420.975 805.59 421.047 805.567 421.1C805.599 421.122 805.64 421.151 805.692 421.184C805.882 421.307 806.171 421.487 806.48 421.733C806.674 421.889 806.883 422.104 807.034 422.256C807.209 422.43 807.366 422.583 807.526 422.71C807.677 422.83 807.791 422.894 807.877 422.928C808.309 422.201 809.197 420.87 809.917 419.981C809.755 419.924 809.576 419.863 809.378 419.791L809.268 419.751L809.169 419.685C808.917 419.52 808.705 419.295 808.568 419.147C808.401 418.968 808.293 418.846 808.169 418.732C808.052 418.625 807.984 418.588 807.956 418.577C807.951 418.575 807.959 418.573 807.943 418.578ZM814.555 419.284C814.475 419.361 814.381 419.429 814.274 419.477C814.202 419.51 814.128 419.531 814.055 419.546C813.755 419.797 813.341 420.146 812.852 420.556L812.841 420.565L812.83 420.573C812.649 420.717 812.477 420.843 812.322 420.955C812.59 421.196 812.912 421.486 813.276 421.81C813.794 422.271 814.066 422.44 814.428 422.716C814.447 422.727 814.467 422.741 814.488 422.754C814.677 422.546 814.934 422.265 815.281 421.871C815.703 421.392 816.035 421.024 816.292 420.742C816.211 420.685 816.12 420.622 816.021 420.55L815.989 420.526L815.959 420.501C815.725 420.301 815.402 420.019 815.084 419.742C814.902 419.583 814.72 419.427 814.555 419.284ZM897.239 413.944C897.681 413.613 898.308 413.703 898.639 414.144C898.97 414.586 898.881 415.212 898.44 415.544C897.284 416.41 896.003 417.384 894.35 417.871L894.288 417.888L894.225 417.898C891.044 418.407 887.433 418.948 883.505 419.541C879.575 420.134 875.323 420.78 870.854 421.502L870.807 421.51L870.759 421.512C861.803 422.094 843.275 422.666 834.681 422.666C834.129 422.666 833.681 422.218 833.681 421.666C833.681 421.114 834.129 420.666 834.681 420.666C843.22 420.666 861.657 420.096 870.584 419.518C875.046 418.798 879.29 418.154 883.206 417.563C887.11 416.974 890.687 416.438 893.839 415.934C895.067 415.56 896.06 414.829 897.239 413.944ZM821.485 418.171C821.252 418.247 821.16 418.306 821.127 418.339C820.948 418.519 820.699 418.821 820.323 419.279C820.128 419.517 819.906 419.786 819.659 420.078C819.915 420.212 820.329 420.402 820.894 420.608H820.893C821.192 420.712 821.505 420.873 821.76 421.007C822.05 421.159 822.287 421.289 822.515 421.395C822.533 421.404 822.551 421.41 822.568 421.418C822.611 421.341 822.654 421.265 822.694 421.194C822.821 420.972 822.937 420.769 823.032 420.576C823.129 420.38 823.184 420.235 823.208 420.135C823.211 420.123 823.211 420.11 823.213 420.101C823.002 419.563 822.736 419.132 822.43 418.89C822.273 418.766 822.093 418.614 821.967 418.511C821.824 418.395 821.71 418.307 821.609 418.242C821.553 418.205 821.512 418.183 821.485 418.171ZM813.79 412.107C813.296 412.87 812.5 414.081 812.027 414.798C812.132 414.858 812.243 414.922 812.359 414.992L812.754 415.236L812.779 415.253L812.804 415.27C813.42 415.716 813.928 416.143 814.221 416.448H814.222C814.29 416.517 814.306 416.527 814.436 416.645C814.688 416.458 814.994 416.227 815.386 415.915C815.842 415.484 816.268 415.079 816.648 414.722C816.459 414.56 816.22 414.336 816.007 414.012C815.581 413.364 815.1 412.722 814.849 412.48C814.561 412.203 814.28 411.945 814.035 411.722C813.962 411.836 813.882 411.965 813.79 412.107ZM817.032 375.79C817.057 375.841 817.074 375.882 817.082 375.905C817.084 375.911 817.086 375.918 817.088 375.925C817.14 375.879 817.193 375.833 817.247 375.789C817.176 375.789 817.104 375.79 817.032 375.79ZM812.327 375.825C812.351 375.813 812.376 375.801 812.401 375.788C812.41 375.783 812.419 375.778 812.429 375.773C812.389 375.773 812.349 375.772 812.309 375.771C812.314 375.79 812.322 375.807 812.327 375.825ZM809.535 375.71C809.55 375.718 809.574 375.731 809.609 375.743C809.638 375.752 809.67 375.758 809.702 375.763C809.705 375.761 809.71 375.758 809.713 375.755C809.725 375.743 809.736 375.73 809.748 375.718C809.675 375.715 809.604 375.713 809.535 375.71ZM817.937 367.562C815.257 368.035 814.105 368.478 812.883 368.843L812.86 368.849L812.839 368.855C810.131 369.531 805.873 370.295 801.029 372.625C803.543 373.103 806.017 373.386 807.757 373.557C808.204 373.601 808.704 373.713 811.2 373.759C812.443 373.781 814.164 373.792 815.893 373.793C815.896 373.784 815.898 373.778 815.9 373.774C815.929 373.697 815.961 373.639 815.976 373.614C816.007 373.562 816.037 373.523 816.047 373.51C816.061 373.492 816.072 373.477 816.08 373.468C816.095 373.449 816.111 373.433 816.121 373.422C816.126 373.417 816.249 373.282 816.272 373.257C816.394 373.122 816.55 372.941 816.687 372.75C816.897 372.455 817.079 372.13 817.252 371.757C817.282 371.663 817.314 371.566 817.345 371.465C817.518 370.886 817.736 370.1 817.937 369.362C817.936 369.241 817.937 369.12 817.937 369.001C817.904 368.854 817.906 368.707 817.937 368.569C817.936 368.201 817.936 367.857 817.937 367.562ZM823.256 371.955C823.308 372.009 823.358 372.06 823.401 372.106C823.475 372.187 823.555 372.278 823.609 372.347C823.623 372.364 823.65 372.398 823.677 372.439C823.688 372.457 823.72 372.505 823.75 372.57C823.765 372.601 823.795 372.669 823.818 372.76C823.832 372.817 823.891 373.065 823.78 373.356C823.755 373.422 823.719 373.485 823.677 373.548C825.833 373.261 827.2 372.77 828.343 372.564C828.836 372.475 829.321 372.312 829.839 372.116C830.326 371.931 830.905 371.691 831.443 371.52L831.456 371.516C832.292 371.263 833.559 371.049 834.796 370.872C836.042 370.694 837.336 370.544 838.261 370.431C838.332 370.419 838.397 370.409 838.444 370.402C838.507 370.393 838.543 370.388 838.573 370.382C838.623 370.372 838.62 370.367 838.608 370.375C839.084 370.095 839.697 370.254 839.977 370.73C839.981 370.737 839.983 370.745 839.987 370.753C840.23 370.686 840.472 370.663 840.699 370.665C840.551 370.572 840.417 370.486 840.292 370.411C839.001 370.165 837.654 369.935 836.239 369.732C830.834 368.958 826.173 367.763 823.256 366.988C823.256 368.616 823.256 370.28 823.256 371.955Z" fill="white"/>
<path d="M704.502 447.411C710.427 444.94 719.358 441.963 726.554 438.618C732.46 435.873 737.711 432.05 743.185 429.557C748.152 427.078 751.874 424.101 754.103 422.122C755.104 421.124 755.84 420.142 756.6 419.13" stroke="white" stroke-width="3" stroke-linecap="round"/>
<path d="M875.618 137.344C878.373 137.177 881.07 137.465 883.137 137.771C884.312 137.944 885.674 138.449 887.08 139.112C888.5 139.782 890.028 140.645 891.551 141.58C894.596 143.45 897.68 145.648 899.928 147.274C901.611 148.492 903.835 150.05 906.16 152.198C907.965 153.866 909.364 155.222 911.043 156.652C912.453 157.854 914.444 158.233 918.722 158.332C920.157 158.365 921.786 157.94 923.71 157.539C925.546 157.156 927.609 156.81 929.585 157.229C931.471 157.628 932.789 158.41 933.911 159.274C934.457 159.695 934.971 160.146 935.45 160.555C935.941 160.972 936.416 161.362 936.936 161.716C938.027 162.457 939.089 163.091 940.179 163.79C941.244 164.473 942.297 165.195 943.234 166.045C945.435 168.04 946.821 169.628 950.012 171.522C951.989 172.696 954.217 173.175 956.551 173.645L956.598 173.654L956.643 173.668C956.992 173.773 957.241 173.867 957.713 173.966C958.182 174.064 958.871 174.164 959.988 174.233C962.251 174.374 966.14 174.374 970.203 174.374C970.334 174.374 970.46 174.399 970.574 174.445C970.593 174.424 970.613 174.403 970.634 174.383C971.027 173.994 971.66 173.998 972.048 174.391C972.425 174.772 972.667 175.248 972.666 175.784C972.665 176.304 972.434 176.726 972.176 177.019L972.092 177.114L971.986 177.186C971.15 177.751 970.127 178.253 968.991 178.688L968.859 178.738L968.715 178.75C967.244 178.869 965.863 178.893 963.92 178.968C961.963 179.043 959.379 179.17 955.432 179.496C953.44 179.661 951.565 179.821 949.911 180.158C948.253 180.496 946.925 180.99 945.978 181.753C945.285 182.31 944.483 183.13 943.565 184.123C942.671 185.089 941.645 186.246 940.598 187.355C938.026 190.081 933.182 193.479 927.516 193.584C919.989 193.723 914.706 193.54 909.979 193.489C905.69 193.443 897.854 193.37 893.614 193.49C888.724 193.629 887.432 193.815 886.167 193.993C885.927 194.027 885.695 193.972 885.504 193.854C885.455 193.975 885.406 194.088 885.354 194.193C885.157 194.589 884.949 194.855 884.776 195.074L884.774 195.076C883.41 196.795 882.242 198.333 880.153 200.392L880.103 200.442L880.044 200.484C878.562 201.574 875.469 202.742 871.997 203.295C868.504 203.851 864.415 203.821 860.956 202.31C859.354 201.61 857.717 200.894 856.259 200.127C854.808 199.364 853.464 198.514 852.477 197.521C851.06 196.097 849.395 194.466 848.125 192.665C846.849 190.855 845.893 188.766 846.01 186.405C846.308 180.383 847.726 175.913 850.915 172.491C852.627 170.655 855.226 169.065 856.807 168.547C856.866 168.528 856.925 168.514 856.984 168.506C857.087 165.678 857.321 161.636 857.757 157.774C857.986 155.752 858.271 153.764 858.624 152.021C858.974 150.295 859.403 148.742 859.942 147.624C861.294 144.818 863.65 142.334 867.603 139.712C869.986 138.131 872.872 137.51 875.618 137.344ZM882.845 139.749C880.835 139.452 878.293 139.186 875.738 139.34C873.176 139.495 870.683 140.068 868.708 141.378C864.93 143.884 862.885 146.123 861.743 148.492C861.316 149.38 860.926 150.736 860.585 152.418C860.248 154.084 859.97 156.009 859.745 157.999C859.296 161.978 859.061 166.168 858.968 168.971C858.95 169.495 858.531 169.912 858.016 169.936C857.901 170.17 857.697 170.36 857.43 170.447C856.193 170.853 853.877 172.247 852.378 173.854C849.63 176.802 848.292 180.741 848.007 186.504C847.921 188.242 848.616 189.889 849.76 191.513C850.911 193.145 852.436 194.645 853.895 196.111C854.668 196.889 855.801 197.626 857.191 198.356C858.573 199.083 860.141 199.771 861.757 200.477C864.728 201.775 868.386 201.845 871.683 201.32C874.948 200.801 877.653 199.73 878.805 198.911C880.757 196.98 881.844 195.551 883.207 193.833C883.366 193.631 883.464 193.501 883.563 193.303C883.666 193.095 883.786 192.776 883.92 192.213C884.047 191.676 884.587 191.343 885.124 191.47C885.436 191.544 885.679 191.757 885.803 192.028C885.831 192.022 885.859 192.017 885.888 192.013C887.241 191.822 888.609 191.632 893.558 191.491C897.846 191.369 905.726 191.443 910 191.489C914.774 191.541 919.991 191.723 927.48 191.585C932.408 191.494 936.775 188.492 939.143 185.982C940.193 184.869 941.152 183.786 942.096 182.765C943.015 181.771 943.905 180.854 944.723 180.195C946.033 179.141 947.725 178.562 949.512 178.198C951.303 177.834 953.299 177.666 955.267 177.503C959.246 177.174 961.861 177.045 963.844 176.969C965.773 176.895 967.051 176.87 968.411 176.766C968.734 176.64 969.038 176.506 969.327 176.373C965.605 176.372 962.035 176.364 959.864 176.229C958.681 176.156 957.892 176.047 957.304 175.924C956.745 175.807 956.366 175.675 956.101 175.594C953.816 175.134 951.283 174.603 948.99 173.242C945.575 171.214 943.981 169.421 941.892 167.526C941.08 166.79 940.139 166.141 939.099 165.474C938.083 164.823 936.925 164.127 935.811 163.369C935.198 162.953 934.656 162.505 934.154 162.078C933.642 161.642 933.185 161.24 932.691 160.859C931.731 160.121 930.684 159.505 929.171 159.185C927.646 158.862 925.954 159.114 924.118 159.497C922.37 159.862 920.41 160.371 918.676 160.331C914.466 160.234 911.765 159.894 909.746 158.174C908.027 156.709 906.567 155.298 904.803 153.668C902.582 151.617 900.462 150.131 898.755 148.896C896.51 147.271 893.48 145.111 890.505 143.284C889.018 142.371 887.558 141.548 886.228 140.921C884.884 140.287 883.732 139.88 882.845 139.749ZM866.859 176.445C867.349 176.19 867.954 176.38 868.209 176.87C868.464 177.36 868.273 177.964 867.783 178.219C866.368 178.956 864.442 180.486 862.78 183.656C862.309 184.555 862.327 185.532 862.609 186.514C862.893 187.505 863.424 188.417 863.859 189.095C864.08 189.44 864.388 189.731 864.79 190.027C864.992 190.176 865.209 190.319 865.445 190.474C865.676 190.624 865.933 190.79 866.183 190.963C866.243 191.005 866.411 191.085 866.754 191.16C867.082 191.232 867.505 191.285 868.019 191.316C869.032 191.378 870.314 191.351 871.76 191.263C872.185 191.188 872.377 191.094 872.49 191.018C872.635 190.92 872.731 190.809 873.003 190.514C873.506 189.967 874.099 189.384 874.727 188.504C875.047 188.055 875.672 187.95 876.121 188.271C876.571 188.591 876.675 189.215 876.355 189.665C875.634 190.676 874.917 191.387 874.476 191.867C874.276 192.085 873.996 192.416 873.607 192.678C873.189 192.958 872.697 193.136 872.048 193.244L871.997 193.253L871.945 193.256C870.442 193.349 869.043 193.384 867.896 193.313C867.322 193.278 866.789 193.216 866.325 193.114C865.877 193.016 865.416 192.864 865.045 192.607C864.824 192.455 864.6 192.31 864.353 192.149C864.112 191.993 863.855 191.823 863.604 191.638C863.1 191.266 862.58 190.806 862.175 190.174C861.714 189.454 861.054 188.344 860.687 187.064C860.317 185.775 860.222 184.229 861.009 182.728C862.855 179.205 865.072 177.376 866.859 176.445ZM879.86 154.026C882.242 153.398 884.593 153.672 886.629 154.37C887.926 154.815 888.96 155.557 889.827 156.314C890.26 156.692 890.661 157.082 891.029 157.443C891.405 157.811 891.74 158.143 892.072 158.438C892.954 159.224 893.585 160.186 894.11 161.109C894.677 162.106 895.045 162.9 895.566 163.743C895.906 164.294 896.54 164.616 897.587 164.809C898.101 164.903 898.659 164.957 899.262 165.009C899.848 165.059 900.488 165.108 901.091 165.196C903.132 165.495 905.12 165.888 907.798 166.026C909.629 166.121 911.763 166.227 913.647 166.434C914.589 166.537 915.49 166.667 916.273 166.84C917.037 167.008 917.767 167.233 918.319 167.559C920.556 168.877 922.608 170.619 923.923 172.214C924.52 172.938 925.236 173.646 926.011 174.422C926.716 175.128 927.463 175.887 928.13 176.706C929.739 177.463 931.087 177.55 932.172 177.688C932.737 177.731 933.435 177.731 934.209 177.731C934.761 177.732 935.209 178.179 935.209 178.731C935.209 179.283 934.761 179.731 934.209 179.731C933.451 179.731 932.66 179.732 931.998 179.681L931.973 179.679L931.947 179.676C930.914 179.542 929.122 179.437 927.052 178.408L926.851 178.309L926.711 178.132C926.09 177.344 925.359 176.601 924.595 175.835C923.846 175.084 923.051 174.3 922.38 173.485C921.232 172.092 919.366 170.497 917.304 169.281C917.028 169.119 916.545 168.948 915.843 168.793C915.158 168.642 914.335 168.521 913.429 168.422C911.614 168.223 909.542 168.119 907.694 168.023C904.892 167.879 902.747 167.46 900.801 167.175C900.272 167.097 899.707 167.054 899.09 167.001C898.49 166.949 897.844 166.889 897.226 166.775C896.009 166.552 894.66 166.081 893.864 164.794C893.345 163.954 892.818 162.883 892.371 162.098C891.883 161.239 891.38 160.501 890.742 159.933C890.366 159.598 889.991 159.226 889.629 158.871C889.26 158.509 888.896 158.156 888.512 157.82C887.746 157.152 886.936 156.59 885.98 156.262C884.232 155.662 882.291 155.455 880.37 155.961C878.082 156.564 875.764 157.626 874.769 159.523C873.766 161.435 873.095 163.994 872.738 165.845C872.738 166.687 872.739 167.467 872.752 167.889C872.754 167.942 872.757 167.988 872.759 168.026C872.958 168.173 873.422 168.431 874.164 168.33C874.77 168.248 875.773 168.1 876.358 167.899C876.801 167.747 877.397 167.533 878.144 167.533C878.533 167.533 878.851 167.525 879.129 167.52C879.395 167.514 879.652 167.509 879.875 167.521C880.098 167.534 880.363 167.565 880.626 167.67C880.915 167.786 881.143 167.966 881.323 168.189C881.561 168.484 881.88 168.89 882.07 169.382C882.14 169.403 882.209 169.433 882.276 169.471C882.754 169.747 882.918 170.358 882.643 170.836C882.615 170.884 882.581 170.932 882.548 170.984C882.493 171.197 882.368 171.389 882.189 171.526C881.615 172.373 880.748 173.722 879.996 176.206C879.292 178.534 879.738 180.398 879.991 181.233C880.222 181.995 880.793 182.773 881.783 183.584C882.773 184.394 884.117 185.184 885.783 185.986C888.267 187.182 891.537 187.246 894.237 187.019C895.682 186.897 896.788 186.3 897.908 185.524C898.974 184.787 900.215 183.748 901.635 183.135C902.62 182.71 903.422 182.243 904.235 181.793C904.648 181.203 904.958 180.492 905.252 179.655C905.546 178.817 905.879 177.675 906.252 176.702L906.256 176.691L906.26 176.682C906.36 176.435 906.433 176.18 906.502 175.641C906.311 175.415 906.068 175.12 905.82 174.82C905.457 174.379 905.041 173.885 904.626 173.438C904.402 173.196 904.076 173.014 903.641 172.854C903.426 172.776 903.204 172.709 902.967 172.64C902.743 172.574 902.484 172.501 902.253 172.419C901.525 172.161 900.387 172.129 899.214 172.221C898.079 172.309 897.06 172.499 896.658 172.584C895.793 172.766 895.179 173.177 894.346 173.62C894.186 173.705 894.012 173.849 893.76 174.134C893.488 174.441 893.233 174.78 892.811 175.291C892.32 175.885 892.056 176.618 891.762 177.413C891.667 177.671 891.646 178.089 891.743 178.562C891.835 179.012 892.001 179.353 892.127 179.515C892.153 179.527 892.246 179.572 892.453 179.623C892.747 179.695 893.141 179.745 893.592 179.766C894.42 179.803 895.308 179.734 895.922 179.604C896.277 179.326 896.601 178.948 896.862 178.412C896.889 178.084 896.893 177.577 896.893 176.971C896.893 176.418 897.341 175.971 897.893 175.971C898.445 175.971 898.893 176.418 898.893 176.971C898.893 177.607 898.895 178.337 898.835 178.809L898.816 178.953L898.757 179.088C898.304 180.107 897.661 180.838 896.92 181.353L896.773 181.456L896.598 181.501C895.745 181.72 894.552 181.811 893.502 181.764C892.973 181.74 892.439 181.679 891.977 181.565C891.568 181.465 891.006 181.277 890.64 180.855C890.211 180.362 889.924 179.645 889.784 178.964C889.644 178.278 889.616 177.45 889.886 176.72C890.152 176 890.521 174.921 891.269 174.017C891.617 173.595 891.967 173.142 892.264 172.808C892.58 172.451 892.939 172.103 893.406 171.854C894.055 171.51 895.022 170.885 896.246 170.627C896.701 170.531 897.81 170.324 899.058 170.227C900.268 170.132 901.769 170.126 902.921 170.534C903.085 170.592 903.275 170.646 903.526 170.72C903.765 170.789 904.045 170.872 904.329 170.977C904.893 171.183 905.558 171.502 906.093 172.078C906.549 172.57 906.995 173.101 907.363 173.548C907.551 173.776 907.712 173.972 907.846 174.134C908.298 174.264 908.608 174.701 908.563 175.187C908.465 176.235 908.361 176.815 908.118 177.417L908.12 177.418C907.741 178.407 907.507 179.27 907.139 180.318C906.797 181.291 906.376 182.294 905.711 183.166L905.582 183.335L905.396 183.438C904.583 183.882 903.605 184.462 902.427 184.971C901.25 185.479 900.335 186.277 899.046 187.169C897.812 188.023 896.361 188.847 894.405 189.012C891.633 189.246 887.906 189.227 884.916 187.788C883.185 186.955 881.68 186.084 880.516 185.131C879.354 184.18 878.465 183.093 878.077 181.813C877.766 180.788 877.217 178.485 878.082 175.627C878.859 173.06 879.819 171.47 880.411 170.582C880.335 170.414 880.259 170.239 880.208 170.107C880.149 169.953 880.033 169.782 879.828 169.524C879.812 169.523 879.792 169.52 879.768 169.519C879.633 169.511 879.452 169.513 879.17 169.519C878.899 169.524 878.557 169.533 878.143 169.533C877.775 169.533 877.476 169.63 877.007 169.791C876.201 170.068 874.99 170.236 874.433 170.312C872.759 170.538 871.701 169.78 871.323 169.438C871.182 169.311 871.081 169.179 871.008 169.069C870.779 168.727 870.766 168.353 870.753 167.951C870.747 167.768 870.745 167.528 870.743 167.254C870.609 167.053 870.546 166.805 870.585 166.548C870.875 164.65 871.644 161.175 872.998 158.594C874.418 155.889 877.501 154.649 879.86 154.026Z" fill="white"/>
<path fill-rule="evenodd" clip-rule="evenodd" d="M660.888 149.369C665.018 149.117 669.062 149.552 672.16 150.017C673.925 150.281 675.966 151.048 678.074 152.056C680.203 153.073 682.494 154.381 684.776 155.801C689.339 158.639 693.959 161.976 697.328 164.445C699.851 166.294 703.184 168.658 706.669 171.919C709.374 174.45 711.472 176.507 713.987 178.679C716.099 180.502 719.078 181.077 725.487 181.227C727.636 181.277 730.074 180.634 732.958 180.024C735.71 179.443 738.805 178.916 741.772 179.552C744.602 180.159 746.577 181.348 748.258 182.659C749.075 183.297 749.846 183.983 750.565 184.603C751.3 185.236 752.011 185.828 752.79 186.364C754.425 187.49 756.018 188.453 757.652 189.514C759.248 190.55 760.825 191.646 762.231 192.937C765.529 195.965 767.606 198.375 772.388 201.251C775.349 203.032 778.686 203.758 782.184 204.471L782.255 204.485L782.323 204.507C782.847 204.667 783.219 204.809 783.925 204.958C784.626 205.106 785.659 205.258 787.333 205.363C790.619 205.57 796.196 205.576 802.083 205.576C802.206 205.317 802.376 205.075 802.593 204.863C803.581 203.899 805.164 203.918 806.128 204.906C806.833 205.628 807.335 206.584 807.332 207.702C807.329 208.781 806.858 209.639 806.359 210.212L806.149 210.453L805.886 210.633C804.551 211.547 802.944 212.342 801.193 213.021L800.855 213.151L800.494 213.182C798.26 213.365 796.148 213.402 793.264 213.514C790.345 213.627 786.486 213.819 780.588 214.312C777.59 214.564 774.844 214.804 772.436 215.301C770.018 215.799 768.212 216.507 766.974 217.517C765.999 218.311 764.841 219.505 763.464 221.013C762.15 222.452 760.579 224.243 759.011 225.927C755.058 230.169 747.559 235.535 738.686 235.701C727.386 235.912 719.433 235.634 712.373 235.557C705.939 235.486 694.219 235.375 687.89 235.558C680.591 235.768 678.694 236.047 676.843 236.312C676.459 236.366 676.083 236.328 675.736 236.218C675.48 236.669 675.224 237.002 675.016 237.27L675.012 237.274C672.971 239.879 671.202 242.236 668.048 245.386L667.946 245.488L667.83 245.574C665.518 247.297 660.792 249.089 655.546 249.935C650.259 250.787 644.018 250.751 638.707 248.401C636.31 247.341 633.839 246.246 631.635 245.071C629.444 243.904 627.376 242.588 625.844 241.027C623.73 238.875 621.202 236.366 619.271 233.592C617.326 230.798 615.834 227.526 616.016 223.8C616.466 214.601 618.607 207.691 623.493 202.382C626.111 199.538 630.076 197.075 632.534 196.259C632.682 196.21 632.831 196.18 632.98 196.166C633.142 191.905 633.491 186.009 634.12 180.367C634.463 177.297 634.89 174.282 635.419 171.638C635.943 169.018 636.585 166.664 637.391 164.971C639.415 160.717 642.942 156.947 648.867 152.966C652.44 150.565 656.77 149.621 660.888 149.369ZM671.716 152.984C668.705 152.533 664.897 152.129 661.07 152.363C657.233 152.598 653.5 153.467 650.541 155.455C644.88 159.259 641.813 162.658 640.1 166.26C639.457 167.611 638.872 169.671 638.361 172.226C637.854 174.756 637.439 177.679 637.102 180.7C636.428 186.741 636.077 193.101 635.938 197.356C635.919 197.929 635.581 198.415 635.101 198.652C634.937 199.289 634.465 199.833 633.795 200.056C632.031 200.641 628.632 202.706 626.437 205.091C622.424 209.451 620.436 215.304 620.011 223.995C619.889 226.491 620.871 228.889 622.554 231.307C624.25 233.744 626.503 235.989 628.698 238.225C629.805 239.351 631.45 240.44 633.516 241.541C635.568 242.634 637.901 243.67 640.326 244.743C644.653 246.658 650.021 246.774 654.909 245.986C659.737 245.208 663.685 243.614 665.337 242.438C668.215 239.549 669.822 237.412 671.859 234.812C672.096 234.508 672.217 234.343 672.343 234.087C672.477 233.814 672.648 233.366 672.843 232.531C673.095 231.456 674.171 230.787 675.246 231.039C675.526 231.105 675.777 231.226 675.992 231.389C676.04 231.379 676.088 231.368 676.136 231.361C678.21 231.065 680.299 230.775 687.745 230.561C694.196 230.375 706.03 230.488 712.427 230.558C719.605 230.636 727.39 230.911 738.592 230.702C745.597 230.571 751.902 226.223 755.353 222.519C756.928 220.828 758.332 219.219 759.772 217.642C761.149 216.133 762.526 214.691 763.815 213.641C765.96 211.891 768.681 210.969 771.426 210.403C774.181 209.835 777.235 209.576 780.171 209.33C785.914 208.849 789.771 208.65 792.711 208.532C790.539 208.501 788.625 208.45 787.145 208.357C785.371 208.246 784.187 208.079 783.305 207.893C782.477 207.718 781.912 207.521 781.516 207.396C778.087 206.698 774.283 205.892 770.841 203.822C765.723 200.744 763.334 198.022 760.202 195.146C758.985 194.029 757.577 193.042 756.018 192.029C754.496 191.041 752.76 189.986 751.089 188.836C750.17 188.203 749.359 187.523 748.607 186.875C747.838 186.213 747.155 185.604 746.413 185.025C744.976 183.904 743.407 182.971 741.143 182.485C738.861 181.996 736.329 182.378 733.578 182.959C730.961 183.512 728.02 184.286 725.417 184.226C719.106 184.078 715.053 183.563 712.027 180.95C709.45 178.726 707.264 176.584 704.619 174.109C701.291 170.995 698.114 168.741 695.555 166.865C692.19 164.399 687.649 161.121 683.191 158.348C680.962 156.961 678.774 155.715 676.781 154.763C674.768 153.801 673.042 153.183 671.716 152.984ZM647.989 209.165C648.478 208.908 649.082 209.095 649.34 209.583C649.597 210.071 649.41 210.677 648.922 210.935C646.709 212.102 643.749 214.499 641.21 219.403C640.422 220.926 640.469 222.56 640.914 224.132C641.362 225.713 642.191 227.15 642.849 228.189C643.228 228.788 643.742 229.272 644.37 229.74C644.685 229.975 645.02 230.2 645.376 230.436C645.725 230.666 646.103 230.912 646.47 231.169C646.637 231.286 646.961 231.426 647.5 231.546C648.025 231.662 648.685 231.745 649.47 231.794C651.025 231.89 652.981 231.847 655.168 231.711C655.868 231.588 656.231 231.423 656.476 231.257C656.754 231.067 656.944 230.843 657.333 230.414C658.071 229.601 658.992 228.684 659.956 227.313C660.274 226.863 660.897 226.754 661.349 227.071C661.8 227.389 661.908 228.013 661.591 228.465C660.534 229.966 659.491 231.012 658.815 231.758C658.497 232.108 658.123 232.554 657.601 232.909C657.05 233.284 656.384 233.536 655.459 233.692L655.407 233.701L655.355 233.704C653.109 233.845 651.036 233.895 649.346 233.79C648.501 233.738 647.728 233.646 647.067 233.499C646.42 233.355 645.802 233.143 645.322 232.808C644.984 232.57 644.64 232.345 644.274 232.104C643.914 231.866 643.539 231.614 643.175 231.343C642.445 230.798 641.718 230.144 641.158 229.259C640.474 228.177 639.519 226.543 638.99 224.677C638.459 222.801 638.337 220.604 639.434 218.484C642.153 213.23 645.403 210.529 647.989 209.165ZM667.37 175.176C670.827 174.253 674.25 174.651 677.231 175.687C679.091 176.333 680.585 177.414 681.86 178.541C682.495 179.103 683.087 179.686 683.639 180.234C684.198 180.79 684.711 181.304 685.22 181.763C686.479 182.899 687.393 184.301 688.17 185.686C688.989 187.143 689.58 188.421 690.36 189.7C690.986 190.726 692.116 191.251 693.724 191.55C694.519 191.698 695.377 191.781 696.279 191.859C697.165 191.936 698.106 192.01 698.992 192.142C702.028 192.592 705.045 193.195 709.089 193.406C711.837 193.55 715.02 193.71 717.826 194.021C719.23 194.178 720.562 194.373 721.711 194.63C722.842 194.882 723.876 195.21 724.635 195.663C727.944 197.639 730.972 200.245 732.901 202.614C733.814 203.737 734.906 204.832 736.061 206.003C737.145 207.103 738.276 208.267 739.274 209.521C741.817 210.756 743.957 210.894 745.584 211.104C746.457 211.172 747.533 211.174 748.696 211.174C749.248 211.174 749.696 211.622 749.696 212.174C749.696 212.726 749.248 213.174 748.696 213.174C747.554 213.174 746.389 213.174 745.42 213.099L745.394 213.097L745.368 213.094C743.796 212.888 741.2 212.734 738.187 211.218L737.985 211.116L737.847 210.938C736.895 209.715 735.781 208.567 734.637 207.406C733.507 206.26 732.336 205.09 731.349 203.877C729.586 201.71 726.744 199.252 723.61 197.381C723.128 197.093 722.344 196.82 721.276 196.582C720.225 196.348 718.973 196.161 717.606 196.009C714.869 195.705 711.75 195.548 708.985 195.403C704.816 195.186 701.638 194.555 698.698 194.119C697.887 193.999 697.023 193.931 696.107 193.852C695.206 193.773 694.26 193.684 693.359 193.517C691.573 193.185 689.73 192.505 688.653 190.741C687.875 189.466 687.127 187.912 686.427 186.665C685.685 185.344 684.899 184.166 683.881 183.248C683.328 182.749 682.775 182.196 682.23 181.654C681.677 181.105 681.122 180.559 680.534 180.039C679.36 179.001 678.092 178.103 676.574 177.575C673.885 176.64 670.876 176.31 667.886 177.108C664.442 178.028 660.776 179.683 659.176 182.771C657.335 186.324 656.234 191.278 655.816 194.059C655.815 194.06 655.815 194.061 655.815 194.062C655.806 194.167 655.799 194.329 655.803 194.626C655.811 194.639 655.819 194.649 655.824 194.656C655.947 194.703 656.184 194.769 656.724 194.883C656.852 194.91 657.395 195.036 658.284 194.872C658.739 194.788 659.076 194.721 659.313 194.669C659.557 194.615 659.648 194.587 659.653 194.586C660.283 194.349 661.349 194.004 661.916 193.859C662.062 193.822 662.328 193.738 662.752 193.691C662.875 193.625 663.049 193.544 663.188 193.496C663.467 193.401 663.747 193.382 663.888 193.367C664.037 193.351 664.232 193.351 664.402 193.345C664.971 193.324 665.408 193.347 665.55 193.36C665.718 193.377 665.892 193.408 666.008 193.43C666.152 193.456 666.214 193.466 666.243 193.469C666.376 193.479 666.851 193.558 667.379 193.645C667.701 193.697 668.191 193.78 668.575 193.895C668.947 194.005 669.223 194.131 669.337 194.177C669.461 194.226 669.571 194.286 669.623 194.314C669.69 194.351 669.711 194.362 669.73 194.37C669.888 194.437 670.012 194.518 670.087 194.568C670.179 194.63 670.194 194.642 670.233 194.665C670.559 194.858 670.82 195.089 670.986 195.269C671.04 195.327 671.158 195.45 671.241 195.543C671.296 195.603 671.391 195.708 671.476 195.828L671.555 195.952L671.683 196.193C671.728 196.288 671.775 196.398 671.817 196.522C671.878 196.707 671.963 196.971 672.009 197.164C672.054 197.35 672.06 197.587 672.061 197.728C672.062 197.903 672.056 198.113 672.033 198.302C672.006 198.535 671.947 198.726 671.906 198.859C671.846 199.058 671.748 199.315 671.715 199.409C671.677 199.517 671.634 199.614 671.608 199.676C671.6 199.693 671.594 199.708 671.588 199.723C671.557 199.877 671.503 200.03 671.421 200.174C670.751 201.352 668.95 203.326 667.454 208.331C666.396 211.874 667.065 214.711 667.445 215.981C667.794 217.145 668.652 218.328 670.136 219.559C671.619 220.788 673.634 221.988 676.131 223.205C679.849 225.018 684.746 225.116 688.791 224.771C690.951 224.586 692.606 223.681 694.286 222.504C695.883 221.385 697.743 219.807 699.872 218.876C701.348 218.231 702.549 217.524 703.769 216.841C704.39 215.943 704.856 214.86 705.297 213.588C705.739 212.312 706.237 210.583 706.796 209.105L706.802 209.091L706.808 209.075C706.954 208.713 707.058 208.339 707.158 207.583C706.846 206.834 706.438 205.98 706.013 205.18C705.449 204.117 704.923 203.271 704.618 202.898C704.107 202.275 703.687 201.968 703.221 201.757C702.698 201.52 702.044 201.366 700.945 201.16C698.078 200.621 696.342 200.748 695.256 200.984C694.711 201.103 694.293 201.256 693.935 201.403C693.66 201.516 693.15 201.754 692.732 201.854C692.384 201.937 691.939 202.161 691.408 202.515C690.865 202.877 690.428 203.233 689.921 203.605C689.573 203.861 689.257 204.157 688.902 204.514C688.567 204.849 688.151 205.287 687.709 205.688C686.959 206.37 686.423 207.593 686.111 209.111C685.998 209.664 686.024 210.148 686.097 210.515C686.176 210.914 686.292 211.089 686.271 211.061C686.708 211.644 687.439 212.243 688.92 212.58C690.04 212.835 691.095 212.753 691.956 212.526C692.849 212.291 693.428 211.929 693.629 211.739C693.894 211.49 693.991 211.303 694.04 210.988C693.961 210.25 693.823 209.847 693.718 209.624C693.648 209.477 693.582 209.385 693.493 209.272C693.472 209.268 693.447 209.261 693.418 209.256C693.308 209.236 693.162 209.214 692.963 209.19C692.14 209.092 691.552 208.346 691.651 207.523C691.749 206.701 692.496 206.114 693.319 206.212C694.129 206.309 694.784 206.427 695.345 206.868L695.456 206.961L695.545 207.04L695.621 207.133C695.766 207.309 696.128 207.705 696.429 208.34C696.728 208.971 696.945 209.774 697.044 210.869L697.057 211.018L697.041 211.165C696.933 212.171 696.586 213.075 695.685 213.924C695.025 214.545 693.953 215.103 692.721 215.428C691.456 215.761 689.907 215.88 688.255 215.505C686.147 215.026 684.775 214.065 683.871 212.86C683.279 212.07 682.785 210.404 683.173 208.509C683.528 206.775 684.234 204.791 685.692 203.468C686.061 203.132 686.371 202.803 686.778 202.395C687.165 202.007 687.61 201.581 688.146 201.188C688.503 200.925 689.133 200.425 689.743 200.019C690.366 199.603 691.165 199.143 692.034 198.936C692.15 198.908 692.257 198.85 692.795 198.629C693.249 198.442 693.843 198.221 694.618 198.053C696.174 197.715 698.325 197.615 701.499 198.212C702.572 198.413 703.563 198.619 704.458 199.024C705.41 199.456 706.183 200.076 706.938 200.995C707.445 201.613 708.087 202.687 708.663 203.773C708.924 204.265 709.183 204.787 709.426 205.305C709.971 205.57 710.323 206.151 710.264 206.79C710.251 206.926 710.237 207.056 710.225 207.182L710.226 207.184C710.403 207.665 710.317 208.18 710.041 208.569C709.934 209.174 709.8 209.666 709.601 210.166L709.602 210.167C709.033 211.669 708.682 212.983 708.132 214.57C707.62 216.046 706.99 217.566 705.994 218.888L705.803 219.143L705.524 219.297C704.305 219.972 702.84 220.853 701.073 221.625C699.31 222.396 697.941 223.607 696.008 224.961C694.159 226.256 691.983 227.509 689.047 227.76C684.891 228.115 679.302 228.089 674.817 225.902C672.221 224.637 669.967 223.315 668.222 221.868C666.479 220.423 665.151 218.775 664.571 216.841C664.106 215.287 663.286 211.8 664.579 207.472C666.205 202.03 668.362 199.483 668.814 198.689C668.815 198.686 668.817 198.683 668.819 198.68C668.846 198.445 668.877 198.221 668.889 198.016C668.903 197.763 668.895 197.429 668.872 197.136C668.867 197.068 668.858 197.007 668.851 196.951C668.839 196.928 668.828 196.904 668.818 196.881C668.808 196.875 668.797 196.869 668.786 196.862C668.714 196.82 668.621 196.765 668.525 196.699C668.119 196.423 667.849 196.252 667.513 196.115C667.28 196.02 667.054 195.949 666.845 195.897C666.813 195.89 666.76 195.882 666.637 195.871C666.532 195.862 666.355 195.85 666.174 195.824C665.853 195.779 665.551 195.749 665.191 195.703C664.914 195.668 664.697 195.659 663.354 195.659C663.321 195.659 663.289 195.66 663.259 195.661C663.232 195.664 663.205 195.669 663.179 195.671C663.157 195.672 663.112 195.674 663.051 195.671C662.942 195.68 662.854 195.693 662.782 195.706C662.635 195.733 662.572 195.756 662.409 195.798C661.93 195.92 660.937 196.24 660.359 196.458C660.208 196.515 659.985 196.569 659.741 196.622C659.474 196.681 659.113 196.753 658.647 196.839C657.402 197.068 656.574 196.896 656.313 196.841C655.745 196.722 655.325 196.621 655.004 196.483C654.442 196.243 654.128 195.79 653.902 195.308L653.812 195.116L653.807 194.905C653.79 194.164 653.81 193.894 653.853 193.608L653.857 193.584L653.861 193.56C653.866 193.538 653.866 193.536 653.866 193.53C653.868 193.52 653.871 193.494 653.875 193.437C653.882 193.345 653.9 193.258 653.929 193.176C654.418 190.232 655.539 185.445 657.401 181.852C659.42 177.955 663.849 176.116 667.37 175.176Z" fill="white"/>
<path d="M181 392.295C181.757 389.334 186.322 381.924 192.956 374.094C197.979 368.165 207.214 365.781 213.986 363.906C220.684 362.051 228.366 361.302 249.996 361.295C260.333 361.291 267.381 364.01 273.38 365.755C278.615 368.481 282.186 370.713 283.841 372.443C284.488 373.436 286.74 375.53 287 376.795" stroke="white" stroke-width="10" stroke-linecap="round"/>
<path d="M275.636 345.781C276.771 342.108 277.906 338.435 284.143 323.449C290.379 308.463 301.683 282.276 313.329 255.295" stroke="white" stroke-width="5" stroke-linecap="round"/>
<path d="M236.206 336.896C235.957 331.912 235.709 326.927 236.196 305.797C236.682 284.668 237.912 247.544 239.178 209.295" stroke="white" stroke-width="5" stroke-linecap="round"/>
<path d="M352.741 364.963C354.172 363.286 355.603 361.609 362.62 355.712C369.637 349.815 382.196 339.748 395.136 329.376" stroke="white" stroke-width="5" stroke-linecap="round"/>
<path d="M371.67 379.41C372.134 378.738 372.597 378.066 375.088 376.666C377.578 375.265 382.08 373.155 386.72 370.982" stroke="white" stroke-width="5" stroke-linecap="round"/>
<path d="M122.836 386.227C120.482 385.613 118.127 384.999 108.789 380.997C99.4511 376.995 83.2009 369.624 66.4582 362.03" stroke="white" stroke-width="5" stroke-linecap="round"/>
<path d="M208.426 347.428C206.943 344.174 205.461 340.92 200.635 326.633C195.809 312.346 187.685 287.124 179.315 261.138" stroke="white" stroke-width="5" stroke-linecap="round"/>
<path d="M164.106 374.934C162.157 374.226 160.209 373.518 152.769 369.214C145.329 364.91 132.457 357.032 119.195 348.915" stroke="white" stroke-width="5" stroke-linecap="round"/>
<path d="M183.665 359.118C180.677 356.741 177.689 354.364 166.088 343.175C154.486 331.987 134.36 312.058 113.624 291.526" stroke="white" stroke-width="5" stroke-linecap="round"/>
<path d="M298.314 350.336C299.374 348.1 300.434 345.865 306.184 337.276C311.935 328.687 322.344 313.813 333.068 298.488" stroke="white" stroke-width="5" stroke-linecap="round"/>
<path d="M330.516 349.239C331.143 348.039 331.771 346.838 335.47 342.883C339.168 338.928 345.919 332.256 352.875 325.382" stroke="white" stroke-width="5" stroke-linecap="round"/>
</g>
<defs>
<clipPath id="clip0_54_8">
<rect width="1200" height="467" fill="white"/>
</clipPath>
</defs>
</svg>
